<svg xmlns="http://www.svgimages.com" viewBox="0 0 100 100" fill="none">
  <rect width="100" height="100" rx="20" fill="url(#paint0_linear)"/>
  <path d="M50 20C46.6863 20 44 22.6863 44 26C44 29.3137 46.6863 32 50 32C53.3137 32 56 29.3137 56 26C56 22.6863 53.3137 20 50 20Z" fill="white"/>
  <path d="M65 35H35C32.2386 35 30 37.2386 30 40V75C30 77.7614 32.2386 80 35 80H65C67.7614 80 70 77.7614 70 75V40C70 37.2386 67.7614 35 65 35ZM45 65H40V60H45V65ZM45 55H40V50H45V55ZM60 65H50V60H60V65ZM60 55H50V50H60V55ZM60 45H40V40H60V45Z" fill="white"/>
  <defs>
    <linearGradient id="paint0_linear" x1="0" y1="0" x2="100" y2="100" gradientUnits="userSpaceOnUse">
      <stop stop-color="#9333ea"/>
      <stop offset="1" stop-color="#4f46e5"/>
    </linearGradient>
  </defs>
</svg>
